<svg width="18" height="18" viewBox="0 0 18 18" fill="none" xmlns="http://www.w3.org/2000/svg">
<path fill-rule="evenodd" clip-rule="evenodd" d="M7.5 3.75019C6.50544 3.75019 5.55161 4.14529 4.84835 4.84859C4.14509 5.55189 3.75 6.50576 3.75 7.50037C3.75 8.49498 4.14509 9.44885 4.84835 10.1521C5.55161 10.8554 6.50544 11.2506 7.5 11.2506C8.49456 11.2506 9.44839 10.8554 10.1517 10.1521C10.8549 9.44885 11.25 8.49498 11.25 7.50037C11.25 6.50576 10.8549 5.55189 10.1517 4.84859C9.44839 4.14529 8.49456 3.75019 7.5 3.75019ZM2.25 7.50037C2.25 6.66877 2.44753 5.84907 2.82632 5.10877C3.20512 4.36846 3.75434 3.72873 4.42875 3.24224C5.10317 2.75576 5.8835 2.43645 6.70548 2.31059C7.52745 2.18474 8.36757 2.25595 9.15664 2.51836C9.94571 2.78077 10.6612 3.22688 11.2441 3.81994C11.827 4.413 12.2607 5.13605 12.5095 5.92955C12.7583 6.72305 12.8151 7.56431 12.6751 8.38404C12.5351 9.20377 12.2025 9.97853 11.7045 10.6445L15.5303 14.4697C15.671 14.6103 15.7501 14.8011 15.7502 15.0001C15.7502 15.1991 15.6713 15.3899 15.5306 15.5306C15.39 15.6714 15.1992 15.7505 15.0003 15.7505C14.8013 15.7506 14.6105 15.6716 14.4697 15.531L10.6447 11.7058C9.86439 12.2896 8.93694 12.6446 7.96625 12.7312C6.99556 12.8177 6.01994 12.6324 5.14861 12.1959C4.27728 11.7594 3.54463 11.089 3.0327 10.2597C2.52077 9.43038 2.24976 8.47496 2.25 7.50037Z" fill="white"/>
</svg>
